<?xml version="1.0" encoding="UTF-8"?>
<svg id="Capa_2" data-name="Capa 2" xmlns="http://www.w3.org/2000/svg" viewBox="0 0 841.48 243.44">
  <defs>
    <style>
      .cls-1 {
        fill: #e5d6c2;
      }
    </style>
  </defs>
  <g id="Capa_1-2" data-name="Capa 1">
    <g>
      <g>
        <path class="cls-1" d="M439.28,98.41l-4.81-4.89c-.98,1.33-2.17,2.46-3.59,3.37s-2.96,1.42-4.62,1.51h-.08c-1.53,0-2.84-.38-3.93-1.14-1.09-.76-1.93-1.72-2.52-2.9-.53-.99-.79-2.04-.79-3.15,0-1.41.52-2.77,1.54-4.08.94-1.21,2.43-2.31,4.47-3.29-.94-.98-1.63-2.03-2.08-3.15-.36-.91-.54-1.79-.54-2.63,0-.57.08-1.12.24-1.64.39-1.33,1.15-2.42,2.27-3.27,1.11-.84,2.46-1.3,4.03-1.37h.16c1.93,0,3.52.49,4.77,1.46.51.41.9.77,1.15,1.09l.36.49-2.41,1.21c-.33-1.32-.83-2.27-1.48-2.85-.66-.58-1.41-.87-2.24-.87h-.26c-1.38.13-2.33.67-2.83,1.62-.5.95-.75,1.91-.75,2.89,0,1.83.65,3.45,1.96,4.85l8.43,8.57.12-.28c.66-1.52,1.18-3.29,1.56-5.3l.51.1c-.39,2.06-.92,3.86-1.58,5.4-.07.17-.14.34-.22.5l7.62,7.72h-4.45ZM429.6,96.29c1.57-.24,3.07-1.29,4.49-3.15l-8.75-8.89c-1.9.91-2.99,1.86-3.28,2.85-.28.99-.43,1.75-.43,2.29,0,.87.21,1.74.61,2.59.66,1.41,1.58,2.49,2.75,3.25s2.36,1.13,3.54,1.13c.34,0,.69-.03,1.05-.08Z"/>
        <path class="cls-1" d="M99.58,17.25c3.95,5.53,6.99,12.85,6.99,20.18,0,2.71-.79,7.44-2.03,9.92,0,.23-.56.23-.56.34-.79,1.69-2.48,4.28-5.19,6.77-.11,0-.23.56-.34.56-1.58.79-2.71,2.48-4.4,3.61-5.19,3.72-14.32,6.65-22.21,6.65h-1.24c.45,2.37,1.92,3.61,2.59,5.75.68,2.25,1.02,4.96,1.02,7.89,0,2.48-.23,5.07-.68,7.56-.68,3.61-2.14,6.77-2.93,10.49-.11.56-.45,1.35-.45,1.92,0,.45.11,1.02.79,1.02,3.83,0,3.38-3.83,5.41-3.83q.34,0,.34.23c0,2.25-2.59,4.51-5.07,4.51-2.26,0-3.27-1.8-4.85-2.82-.34-1.58-.79-3.04-.79-4.51,0-7.56,5.41-13.87,5.41-21.09,0-.79-1.58-4.85-2.25-4.85s-2.93,3.95-4.62,6.09c-.45.68-.79,1.58-1.24,2.26s-1.35,1.24-1.92,1.92c-2.82,4.29-5.19,8.01-10.26,12.18-.34.34-.9.34-1.24.56s-.34.79-.68,1.01c-2.82,2.25-6.09,3.61-9.25,5.41,1.69.68,4.28,1.35,6.77,1.35h2.14c.56,0,1.13-1.35,2.14-1.35.23,0,.56.11.79.34-.68,1.69-2.25,2.03-3.95,2.03-3.38,0-6.65-1.01-9.92-1.01-2.59,0-4.85,1.24-7.55,1.58-3.16.45-6.31.56-9.7.56-2.03,0-5.86.11-6.65-1.58.23-2.48,2.82-2.93,5.86-2.93,4.29,0,8.46.34,12.74.68.9.11,1.69.34,2.37.34,1.92,0,3.72-2.14,5.64-3.5.22-.23.68-.11.9-.34,2.14-1.58,4.51-4.28,6.09-6.43.9-1.24,2.37-2.48,3.5-3.83.23-.23.11-.68.34-.9,1.02-1.24,2.71-3.16,3.83-4.85.23-.34.11-.68.34-.9,1.92-3.16,5.07-6.99,7.33-10.94,0-1.35-2.03-.68-2.48-1.58-1.13-.68-1.8-1.24-1.8-2.14,0-1.47,1.47-2.03,3.04-2.03,1.47,0,3.04.45,3.83,1.01,1.35-.9,1.69-2.59,2.59-4.17.23-.45.79-.68.9-1.02.56-.9.79-1.92,1.35-2.82,2.59-5.41,6.54-10.26,10.82-17.03,1.13-1.69,3.16-3.5,4.51-5.75.9-1.58,1.47-2.71,6.09-8.01.68-.68.79-1.13,1.24-1.58,1.13-1.13,2.82-1.69,3.5-3.16-.45-3.38-8.79-7.55-8.57-7.44-1.13-.68-1.92-1.69-2.93-2.25-1.46-.79-3.61-1.24-5.07-1.92-1.69-.68-3.27-1.69-4.85-2.26-1.35-.34-2.93-.23-4.51-.56-3.38-.56-6.77-1.35-11.84-1.35-9.02,0-18.94,1.8-25.94,4.17-1.01.45-1.8,1.13-3.16,1.69-4.4,1.92-8.8,4.06-12.52,6.65-.22.23-.34.79-.56,1.02-2.25,1.69-4.4,3.04-7.44,6.31-.56.79-2.37,2.14-2.37,2.93s-1.92,3.16-2.71,4.17c-.9.9-3.04,6.54-3.04,12.07,0,4.51,1.35,8.46,3.72,11.28.79,1.02,1.92,3.16,3.16,4.17.45.34,1.01.34,1.58.68.34.11.68.68,1.02.9.45.34,1.01.34,1.58.68.34.23.56.79.9.9,1.8.9,5.64,1.58,9.25,1.69,20.3,0,33.72-9.36,44.43-18.83,2.93-2.59,6.65-8.34,7.44-8.34.23,0,.23.34.23.56,0,3.83-5.53,11.05-8.23,13.87-4.4,4.62-9.81,7.89-17.82,11.5-5.75,2.59-12.52,3.16-18.61,3.16-1.47,0-3.04,0-4.4-.11l.68.11c-1.13-.11-2.71-.45-3.95-.68-1.35-.23-2.71-.11-3.83-.34-1.13-.23-2.03-.9-3.27-1.24-.56-.23-1.24-.11-1.92-.34-.23-.23,0-.68-.45-.68h-.68c-.9,0-2.71-2.14-3.95-2.82-.45-.23-1.24-.45-1.24-.79v-.45q0-.11-.11-.11h-.45c-.45,0-3.95-5.3-4.62-6.99C.57,45.89.12,43.08,0,40.03c0-1.8-.11-4.4.56-6.77.11-.68.9-1.24,1.24-2.26.23-.56.11-1.01.34-1.58,3.27-7.78,10.71-13.42,14.66-16.58.34-.23,1.01-1.13,1.35-1.35.11,0,.22.11.34.11-.11,0,2.59-1.8,4.17-2.59,1.35-.68,2.93-1.24,4.4-1.92,1.46-.68,2.71-1.69,4.17-2.26,2.93-1.13,6.43-2.14,9.92-2.93,1.69-.34,3.27-1.01,4.85-1.24,1.8-.34,3.95-.11,5.75-.34,2.14-.23,6.43-.34,9.58-.34.23,0,.34.34.68.34s.45-.34,1.24-.34c1.69,0,3.16.9,4.85,1.01,1.47.23,2.82,0,4.17.23,3.5.68,8.46,2.59,12.4,4.51.11.11.23.56.34.68,4.4,2.37,8.68,4.96,12.86,8.91,3.38-3.16,6.2-4.74,9.13-6.54,1.13-.68,4.17-1.69,5.75-1.69.56,0,.9.11,1.01.45-.11.56-5.64,1.92-8.34,3.5-2.03,1.13-4.4,3.83-6.09,5.41l.23.79ZM21.66,96.98c-2.37,0-4.62.34-6.09,1.58.34.45.79.56,1.35.56,4.85,0,12.4-.11,15.67-1.47-3.27,0-7.33-.68-10.94-.68ZM62.36,60.55c-.68,0-1.35.23-1.92.56.11,1.92,1.69,2.59,3.83,2.59,0-.79.68-1.13.68-2.03,0-.11-.11-.34-.11-.56-.79-.34-1.69-.56-2.48-.56ZM102.06,31.57c0-5.3-1.58-9.25-3.61-12.63,0-.23,0-.34-.11-.34-.9,0-.56.45-.79.9-1.13,1.47-2.82,2.82-3.27,3.27-.23.34-.23,1.13-.56,1.58-.11.11-.56.11-.68.34-.22.23-.9,1.58-1.24,2.25-4.74,7.33-7.89,12.97-11.5,19.85-2.37,4.62-4.62,9.36-6.77,13.42-.56,1.13-2.14,3.16-2.14,3.61,0,.11.11.22.56.22,3.72-.11,6.99-1.24,9.58-2.25,6.99-2.82,7.44-4.62,11.16-6.77.68-1.47,2.59-2.71,3.27-3.83.68-1.01,2.03-3.5,2.82-5.07.34-.56.79-.79,1.01-1.24.23-.56.11-1.47.34-2.26.45-2.03,1.24-4.17,1.58-6.09.22-1.69.34-3.38.34-4.96Z"/>
        <g>
          <path class="cls-1" d="M131.37,94.01c-5.08-3.01-9.13-7.06-12.14-12.14s-4.52-10.72-4.52-16.91,1.51-11.83,4.52-16.91c3.01-5.08,7.06-9.12,12.14-12.14,5.08-3.01,10.72-4.52,16.91-4.52s11.78,1.51,16.86,4.52c5.08,3.01,9.13,7.06,12.16,12.14,3.03,5.08,4.55,10.71,4.55,16.91s-1.52,11.83-4.55,16.91c-3.03,5.08-7.09,9.12-12.16,12.14-5.08,3.01-10.7,4.52-16.86,4.52s-11.83-1.51-16.91-4.52ZM160.4,94.36c3.48-1.81,6.37-4.25,8.67-7.29,2.3-3.05,4.03-6.49,5.2-10.32,1.17-3.83,1.75-7.76,1.75-11.79s-.58-7.95-1.75-11.76c-1.17-3.81-2.9-7.25-5.2-10.32-2.3-3.06-5.19-5.5-8.67-7.32-3.48-1.81-7.52-2.72-12.11-2.72s-8.68.91-12.14,2.72c-3.46,1.82-6.35,4.25-8.67,7.32-2.32,3.06-4.05,6.5-5.2,10.32s-1.72,7.74-1.72,11.76.57,7.96,1.72,11.79c1.15,3.83,2.88,7.27,5.2,10.32,2.31,3.05,5.2,5.48,8.67,7.29,3.46,1.82,7.51,2.72,12.14,2.72s8.63-.91,12.11-2.72Z"/>
          <path class="cls-1" d="M195.09,96.16c-3.03-1.45-5.29-3.22-6.77-5.32-1.48-2.1-2.37-4.18-2.67-6.25l5.54-1c.8,4.1,2.68,7.35,5.65,9.77,2.96,2.42,6.41,3.62,10.34,3.62h.3c2.7-.13,5.34-.85,7.92-2.15,2.58-1.3,4.61-2.99,6.09-5.07,1.48-2.08,2.22-4.37,2.22-6.87l-.05-1.15c-.6-4.06-2.53-7.19-5.79-9.39-3.27-2.2-7.01-4.11-11.24-5.75-3.2-1.3-6.24-2.75-9.12-4.35s-5.25-3.63-7.12-6.09c-1.87-2.46-2.83-5.64-2.9-9.54.03-3.4.9-6.22,2.6-8.47,1.7-2.25,3.96-3.94,6.79-5.07,2.83-1.13,5.88-1.7,9.14-1.7,5.39,0,9.62,1.09,12.69,3.27,3.06,2.18,5.21,5.29,6.45,9.32l-5.35,1.45c-.57-2.4-1.35-4.55-2.35-6.44s-2.41-3.4-4.25-4.5c-1.83-1.1-4.36-1.65-7.59-1.65-3.56,0-6.7,1.2-9.42,3.6-2.71,2.4-4.07,5.36-4.07,8.89v.25c.23,2.66,1.16,4.89,2.77,6.67,1.62,1.78,3.67,3.32,6.17,4.62s5.18,2.53,8.04,3.7c3.3,1.3,6.44,2.76,9.44,4.4,3,1.63,5.46,3.67,7.39,6.12s2.96,5.57,3.1,9.37c-.03,4.83-2.03,9-5.99,12.51-3.96,3.51-9.33,5.37-16.09,5.57-4.9-.13-8.86-.92-11.89-2.37Z"/>
          <path class="cls-1" d="M289.91,98.53h-13.49v-1.45c.73,0,1.45-.28,2.15-.85.53-.47.8-.97.8-1.5,0-.3-1.83-5.46-5.5-15.49l-1.6-4.35h-30.12l-7.04,19.33-.05.5c0,.53.31,1.06.93,1.57.62.52,1.29.77,2.02.77v1.45h-8.84v-1.45c.7,0,1.53-.29,2.5-.87.96-.58,1.62-1.24,1.95-1.97l22.83-62.84h6.15l11.34,31.22,11.54,31.62c.3.73.93,1.39,1.9,1.97.96.58,1.81.87,2.55.87v1.45ZM271.78,73.45l-14.54-39.96-14.59,39.96h29.12Z"/>
          <path class="cls-1" d="M340.12,98.53h-6.64l-35.57-61.55v57.25c0,.7.3,1.35.9,1.95s1.27.9,2,.9v1.45h-7.19v-1.45c.7,0,1.35-.3,1.95-.9s.9-1.25.9-1.95v-59.75l-1.75-3.1h6.64l35.52,61.54v-57.25c0-.7-.3-1.35-.9-1.95s-1.27-.9-2-.9v-1.45h7.19v1.45c-.7,0-1.35.3-1.95.9s-.9,1.25-.9,1.95v59.75l1.8,3.1Z"/>
          <path class="cls-1" d="M404.66,98.53h-13.49v-1.45c.73,0,1.45-.28,2.15-.85.53-.47.8-.97.8-1.5,0-.3-1.83-5.46-5.49-15.49l-1.6-4.35h-30.12l-7.04,19.33-.05.5c0,.53.31,1.06.92,1.57.62.52,1.29.77,2.02.77v1.45h-8.84v-1.45c.7,0,1.53-.29,2.5-.87.96-.58,1.61-1.24,1.95-1.97l22.83-62.84h6.14l11.34,31.22,11.54,31.62c.3.73.93,1.39,1.9,1.97.97.58,1.82.87,2.55.87v1.45ZM386.52,73.45l-14.54-39.96-14.59,39.96h29.12Z"/>
        </g>
        <path class="cls-1" d="M344.39,142.18c1.13-1.24,2.03-5.41,3.27-5.41.68-1.58,1.8-3.16,3.16-4.51,1.47-1.47,2.26-3.04,3.83-4.51.9-.79,2.14-1.47,3.27-2.26.23-.23.34-.79.56-.9.34-.23.68-.11,1.02-.34,4.06-3.16,9.58-6.65,15-8.01,7.44-2.48,15.56-4.29,25.37-4.29,6.54,0,14.77,1.47,21.09,4.62.23,0,.45.56.79.56h.56c.45,0,.9.79,1.24,1.01,2.25,1.35,4.85,2.03,6.65,5.41.9,1.58,1.8,3.04,1.8,5.07,0,1.35-.34,2.82-1.8,4.85-.34.56-.34,1.24-.68,1.58-.68,1.01-2.26,2.14-3.5,3.27-.79.68-1.47,1.58-2.26,2.25-1.24.9-5.07,3.16-4.74,3.16h-.9c-1.35,0-3.83,2.37-4.28,2.59s-1.13.11-1.58.34c-.23,0-.56.56-.9.56h-.56c-.23,0-.68.68-1.02.68h-.56c-.45,0-.9.79-1.47.9-.56.23-1.24.11-1.92.34-4.17,1.47-8.8,2.71-14.32,3.5-3.27.45-5.98,1.01-8.79,1.01-12.52,0-25.6-2.82-34.51-7.33-.9,1.8-1.35,4.06-1.35,6.31,0,7.56,2.71,11.05,8.8,14.1,4.06,2.03,11.61,3.5,18.94,3.5,6.09,0,13.08-1.8,20.41-4.74,1.47-.56,2.71-1.58,4.17-2.26.45-.23,1.13-.11,1.58-.34,1.47-.45,3.5-1.92,5.07-2.82.79-.45,1.58-.56,2.25-1.01.34-.11.68-.79,1.02-.9.45-.34.9-.11,1.24-.34,4.96-2.93,10.6-6.77,14.77-10.94,1.24-.56,2.48-2.14,3.83-3.16.56-.45,1.35-.79,1.92-1.24,2.82-2.71,5.19-5.64,8.34-8.34,5.3-5.3,3.83-4.51,10.49-11.5.68-1.35,2.14-2.82,3.27-4.17,5.75-6.99,11.61-14.55,16.92-22.44,1.69-2.59,3.61-5.07,5.41-7.67.79-1.24,1.13-2.14,2.26-4.17.22-.45.79-.56,1.01-1.02,0,0,.9-2.14.9-1.58.56-1.35,2.03-4.4,2.93-5.07,1.35-1.58,2.59-7.22,5.3-7.22,1.58,0,2.03,1.69,2.03,2.59,0,1.13-.45,2.48-.68,3.27-.68,4.51-3.83,11.61-5.98,17.7-1.35,3.83-2.82,7.67-4.17,11.5-1.01,2.82-2.37,5.41-3.27,8.57-1.58,5.41-3.16,9.36-6.09,15.79-1.01,2.25-1.69,5.3-2.48,8.01-.22.56-.79,1.01-1.01,1.58-.23.56-.11,1.35-.34,1.92,0,.11-.56.45-.56.56-.34.9-.11,1.8-.68,2.59,0,.11.11.11.23.11.9,0,3.5-4.62,5.19-7.1,6.65-9.7,14.55-19.62,21.09-30.78,4.85-7.44,9.58-14.32,15.11-21.76.11-.11.56-.23.68-.34.45-.9,2.82-4.51,2.82-3.83.79-1.69,2.93-3.72,4.51-5.75,4.29-5.41,9.47-11.73,16.35-18.83.56-.56,1.02-1.47,1.58-1.92.56-.56,1.35-.79,1.92-1.35,2.59-2.03,4.51-3.95,8.01-6.43.11,0,.23-.56.34-.56,1.24-1.24,4.06-2.25,6.65-3.5,3.83-1.8,8.01-3.5,12.85-4.85,1.13-.34,3.5-.79,5.64-.79,1.58,0,5.07.56,5.07,2.14,0,.34-.34.45-.45.45-.56,0-1.69-1.47-4.17-1.47s-5.75.9-7.33,1.24c-4.4,1.13-8.12,2.71-11.95,4.85-1.46.79-3.04,1.35-4.4,2.26-.68.34-1.24,1.13-1.92,1.58-2.25,1.47-4.62,3.04-5.75,4.17-.68.45-1.02,1.35-1.69,1.92-.45.45-1.35.79-1.92,1.24-2.25,2.03-4.4,4.17-6.31,7.1-3.5,3.5-7.22,8.46-12.52,14.32-.34.45-.34,1.01-.68,1.35-.22.23-.68.34-.9.56-4.17,4.96-8.68,11.5-12.85,17.37-.23.23-1.24,1.92-1.24,1.69v.45c0,.34-.68.11-.68.45v.45c0,.23-.56.34-.68.45-.56,1.35-1.8,3.04-2.82,4.51-1.92,2.82-4.17,6.43-5.75,9.58-.11.11-.68.23-.68.45v.34c0,.56-1.35,1.35-1.58,1.69-.68,1.13-3.83,6.2-3.83,5.98v.34c0,.23-.56.34-.68.45v.45c0,.45-.45.34-.68.56-1.13,2.59-4.4,6.54-5.75,8.23-.23.45-.23.9-.56,1.35-1.24,1.24-1.46,2.03-3.61,4.17v.45c0,.79-1.58,2.03-2.14,3.04-1.35,2.14-3.16,4.51-4.85,6.77-1.35,1.69-4.29,6.2-5.75,6.32-1.02,0-1.24-1.69-1.24-2.48,0-3.83,3.16-14.09,5.07-20.18.34-1.13,1.13-1.58,1.13-3.04,0-1.58.79-1.92,1.13-3.04.9-2.59,2.14-5.3,3.16-8.01,3.5-9.36,7.1-19.73,10.6-28.87.23-.56,1.24-1.92,1.24-2.82-4.85,6.09-8.91,13.76-14.1,20.18-.34.56-.79,1.69-1.58,2.48-.23.34-.68.45-.9.68-.22.23-.11.68-.34,1.01-.23.23-.79.34-1.02.56-.45.79.11,0-1.58,2.59-1.58,2.26-3.61,4.17-5.41,6.43,0,0-1.13,1.13-2.26,2.48-.22.23-.11.79-.34,1.02-.9,1.01-2.03,1.8-2.82,2.82-5.64,6.32-10.71,12.29-17.03,18.27-2.14,2.03-4.29,3.72-6.43,5.53-4.06,3.5-8.46,6.88-13.42,9.92-.68.34-1.47.45-2.25.9-.56.34-1.02.9-1.58,1.24-9.25,5.3-21.88,10.71-33.94,10.71-5.08,0-10.26-.34-15-1.69-6.43-1.69-16.01-8.68-16.01-21.09,0-1.47.11-3.04.56-4.51-.68-1.35-1.92-2.14-3.16-2.93-2.03-2.59-4.96-5.53-4.96-11.95,0-2.71.68-5.3,2.03-7.56.9-1.69,3.38-4.17,4.28-4.17.11,0,.23,0,.23.11,0,.34-1.58,1.58-2.37,2.93-1.8,2.82-2.71,5.53-2.71,8.91,0,6.77,3.83,9.58,7.1,12.74h-.11ZM405.29,114.9h-1.24c-.45,0-.79-.23-1.02-.23-7.67,0-16.46,1.8-22.78,3.83-1.92.68-3.38,1.58-4.74,2.26-8.23,3.95-8.57,4.28-10.94,6.09-6.54,4.85-12.86,10.37-16.01,17.82,8.34,5.3,20.75,7.55,34.28,7.55,6.77,0,10.49-1.13,15.67-2.37,3.38-.79,6.99-1.24,9.92-2.93,6.88-2.82,10.26-5.07,12.85-6.31,4.29-2.93,9.58-6.88,9.58-12.52-.45-8.8-17.59-13.19-25.6-13.19Z"/>
        <g>
          <path class="cls-1" d="M523.01,142.98v-1.45c.7,0,1.35-.3,1.95-.9s.9-1.25.9-1.95v-58.55c0-.7-.3-1.35-.9-1.95s-1.25-.9-1.95-.9v-1.45h11.49v1.45c-.73,0-1.4.3-2,.9s-.9,1.25-.9,1.95v58.55c0,.7.3,1.35.9,1.95s1.27.9,2,.9v1.45h-11.49Z"/>
          <path class="cls-1" d="M575.46,142.98c-6.19,0-11.83-1.51-16.91-4.52-5.08-3.01-9.13-7.06-12.14-12.14s-4.52-10.72-4.52-16.91,1.51-11.83,4.52-16.91c3.01-5.08,7.06-9.12,12.14-12.14,5.08-3.01,10.72-4.52,16.91-4.52,4.43,0,8.7.85,12.81,2.55,4.11,1.7,7.75,4.13,10.92,7.29l-4.4,5.1c-4.16-4.73-8.43-8.08-12.79-10.04-3.5-1.6-6.89-2.4-10.19-2.4-.83,0-2.46.14-4.89.42-2.43.28-5.27,1.74-8.52,4.37-3.25,2.63-5.84,6.18-7.77,10.64-1.93,4.46-2.9,9.67-2.9,15.64,0,4.03.57,7.96,1.72,11.79,1.15,3.83,2.88,7.27,5.2,10.32,2.31,3.05,5.2,5.48,8.67,7.29,3.46,1.82,7.51,2.72,12.14,2.72,4.26,0,8.35-.81,12.26-2.42,3.91-1.62,7.4-3.94,10.46-6.97l1,1c-3.17,3.16-6.8,5.59-10.92,7.29-4.11,1.7-8.38,2.55-12.81,2.55Z"/>
          <path class="cls-1" d="M659.99,142.98h-13.49v-1.45c.73,0,1.45-.28,2.15-.85.53-.47.8-.97.8-1.5,0-.3-1.83-5.46-5.5-15.49l-1.6-4.35h-30.12l-7.04,19.33-.05.5c0,.53.31,1.06.92,1.57.62.52,1.29.77,2.02.77v1.45h-8.84v-1.45c.7,0,1.53-.29,2.5-.87.97-.58,1.62-1.24,1.95-1.97l22.83-62.84h6.14l11.34,31.22,11.54,31.62c.3.73.93,1.39,1.9,1.97.96.58,1.81.87,2.55.87v1.45ZM641.85,117.9l-14.54-39.96-14.59,39.96h29.12Z"/>
          <path class="cls-1" d="M710.19,142.98h-6.64l-35.57-61.55v57.25c0,.7.3,1.35.9,1.95s1.27.9,2,.9v1.45h-7.19v-1.45c.7,0,1.35-.3,1.95-.9s.9-1.25.9-1.95v-59.75l-1.75-3.1h6.64l35.52,61.54v-57.25c0-.7-.3-1.35-.9-1.95s-1.27-.9-2-.9v-1.45h7.19v1.45c-.7,0-1.35.3-1.95.9-.6.6-.9,1.25-.9,1.95v59.75l1.8,3.1Z"/>
          <path class="cls-1" d="M734.95,138.46c-5.08-3.01-9.12-7.06-12.14-12.14-3.01-5.08-4.52-10.72-4.52-16.91s1.51-11.83,4.52-16.91c3.01-5.08,7.06-9.12,12.14-12.14,5.08-3.01,10.72-4.52,16.91-4.52s11.78,1.51,16.86,4.52c5.08,3.01,9.13,7.06,12.16,12.14,3.03,5.08,4.54,10.71,4.54,16.91s-1.52,11.83-4.54,16.91c-3.03,5.08-7.09,9.12-12.16,12.14-5.08,3.01-10.7,4.52-16.86,4.52s-11.83-1.51-16.91-4.52ZM763.97,138.81c3.48-1.81,6.37-4.25,8.67-7.29,2.3-3.05,4.03-6.49,5.2-10.32,1.17-3.83,1.75-7.76,1.75-11.79s-.58-7.95-1.75-11.76-2.9-7.25-5.2-10.32c-2.3-3.06-5.19-5.5-8.67-7.32-3.48-1.81-7.52-2.72-12.12-2.72s-8.68.91-12.14,2.72c-3.46,1.82-6.35,4.25-8.67,7.32-2.31,3.06-4.05,6.5-5.2,10.32-1.15,3.81-1.72,7.74-1.72,11.76s.57,7.96,1.72,11.79c1.15,3.83,2.88,7.27,5.2,10.32,2.31,3.05,5.2,5.48,8.67,7.29,3.46,1.82,7.51,2.72,12.14,2.72s8.63-.91,12.12-2.72Z"/>
          <path class="cls-1" d="M841.48,142.98c-2.43,0-4.54-.56-6.34-1.67-1.8-1.12-3.37-2.58-4.7-4.4-1.33-1.81-2.51-3.8-3.52-5.97-1.02-2.16-1.94-4.29-2.77-6.37-.83-2.08-1.66-3.98-2.47-5.7-.82-1.71-1.7-3.1-2.65-4.15-.95-1.05-2.04-1.57-3.27-1.57h-14.64v25.53c0,.7.3,1.35.9,1.95s1.25.9,1.95.9v1.45h-11.49v-1.45c.73,0,1.4-.3,2-.9s.9-1.25.9-1.95v-58.55c0-.7-.3-1.35-.9-1.95s-1.27-.9-2-.9v-1.45h26.03c3.43,0,6.56.84,9.39,2.52s5.09,3.94,6.77,6.77c1.68,2.83,2.52,5.96,2.52,9.39,0,4.66-1.49,8.7-4.47,12.12s-6.75,5.52-11.31,6.32c3.13,1.6,5.62,4.05,7.47,7.34,1.85,3.3,3.39,6.69,4.62,10.19.8,2,1.58,3.83,2.35,5.5.77,1.67,1.6,3.01,2.5,4.02.9,1.02,1.95,1.52,3.15,1.52v1.45ZM815,111.76c5.29,0,9.36-1.57,12.19-4.7,2.83-3.13,4.25-7.31,4.25-12.54s-1.42-9.41-4.25-12.54-6.89-4.7-12.19-4.7h-13.89v34.47h13.89Z"/>
        </g>
      </g>
      <g>
        <path class="cls-1" d="M324.46,196.28l-.49-3.17c1.07-1.06,3.21-1.83,5-1.83,3.71,0,6.13,2.11,6.13,5.55,0,4.79-5.93,10.03-8.7,12.87h6.44c1.66,0,2.29-.6,3.28-2.37h.28l-1.34,3.95h-11.49v-.28c3.27-3.02,9.43-9.74,9.43-14.05,0-3.04-1.53-4.87-4.03-4.82-2.6.05-4.29,1.47-4.23,4.16h-.28Z"/>
        <path class="cls-1" d="M361.32,210.12c0-.7.56-1.26,1.26-1.26s1.26.56,1.26,1.26-.56,1.26-1.26,1.26-1.26-.56-1.26-1.26Z"/>
        <path class="cls-1" d="M379.75,194.47v.28h-.36c-1,0-1.8.68-1.82,1.52v15c0,2.72-2.37,4.98-5.13,4.98v-.28c1.79-.56,3.34-2.63,3.34-4.7v-15.11c-.08-.79-.86-1.41-1.82-1.41h-.36v-.29s6.15,0,6.15,0Z"/>
        <path class="cls-1" d="M399.35,194.47v.28h-.42c-.72,0-1.31.5-1.35,1.18v9.42c0,3.91-2.66,6.31-6.98,6.31s-7-2.38-7-6.27v-9.43c-.01-.69-.61-1.21-1.35-1.21h-.42v-.28h5.31v.28h-.41c-.74,0-1.33.52-1.35,1.21v9.08c0,3.63,1.97,5.86,5.19,5.86,3.53,0,5.7-2.11,5.71-5.55v-9.41c-.02-.68-.62-1.19-1.35-1.19h-.42v-.28h4.82Z"/>
        <path class="cls-1" d="M414.78,207.25l-1.54,4.02h-11.37v-.28h.39c.9,0,1.58-.66,1.62-1.49v-13.24c-.02-.84-.76-1.52-1.67-1.52h-.33v-.28s5.8,0,5.8,0v.28h-.33c-.91,0-1.65.67-1.67,1.51v14.15h4.38c2.69-.04,3.65-1.35,4.44-3.16h.3Z"/>
        <path class="cls-1" d="M416.2,211.27v-.28h.38c1.04,0,1.88-.68,1.9-1.52v-13.21c-.02-.84-.86-1.52-1.91-1.52h-.37v-.28s6.34,0,6.34,0v.28h-.38c-1.02,0-1.85.65-1.9,1.47v13.28c.03.83.87,1.49,1.9,1.49h.37v.28s-6.34,0-6.34,0Z"/>
        <path class="cls-1" d="M443.94,202.87c0,5.2-4.22,8.79-9.45,8.79s-9.45-3.59-9.45-8.79,4.22-8.79,9.45-8.79,9.45,3.59,9.45,8.79ZM441.87,202.87c0-4.73-3.26-7.96-7.37-7.96s-7.37,3.22-7.37,7.96,3.25,7.95,7.37,7.95,7.37-3.22,7.37-7.95Z"/>
        <path class="cls-1" d="M453.58,210.12c0-.7.56-1.26,1.26-1.26s1.26.56,1.26,1.26-.56,1.26-1.26,1.26-1.26-.56-1.26-1.26Z"/>
        <path class="cls-1" d="M466.9,196.28l-.49-3.17c1.07-1.06,3.21-1.83,5-1.83,3.71,0,6.13,2.11,6.13,5.55,0,4.79-5.93,10.03-8.7,12.87h6.44c1.66,0,2.29-.6,3.28-2.37h.28l-1.34,3.95h-11.49v-.28c3.27-3.02,9.43-9.74,9.43-14.05,0-3.04-1.53-4.87-4.03-4.82-2.6.05-4.29,1.47-4.23,4.16h-.28Z"/>
        <path class="cls-1" d="M494.75,201.47c0,6.32-2.5,10.19-6.58,10.19s-6.58-3.87-6.58-10.19,2.5-10.19,6.58-10.19,6.58,3.87,6.58,10.19ZM483.54,201.47c0,5.8,1.76,9.35,4.62,9.35s4.62-3.55,4.62-9.35-1.76-9.35-4.62-9.35-4.62,3.55-4.62,9.35Z"/>
        <path class="cls-1" d="M498.37,196.28l-.49-3.17c1.07-1.06,3.21-1.83,5-1.83,3.71,0,6.13,2.11,6.13,5.55,0,4.79-5.93,10.03-8.7,12.87h6.44c1.66,0,2.29-.6,3.28-2.37h.28l-1.34,3.95h-11.49v-.28c3.27-3.02,9.43-9.74,9.43-14.05,0-3.04-1.53-4.87-4.03-4.82-2.6.05-4.29,1.47-4.23,4.16h-.28Z"/>
        <path class="cls-1" d="M516.31,202.19c2.89-3.5,8.71-3.17,9.11,3.04.21,3.23-2.06,6.4-5.88,6.46-3.76.06-6.5-2.94-6.43-8.02.08-5.79,3-12.2,9.41-12.96l.1.21c-5.33,1.71-7.41,6.96-7.41,12.75,0,4.22,1.44,7.18,4.33,7.18,2.67,0,3.83-2.56,3.78-5.22-.05-2.82-1.37-4.63-3.78-4.62-1.17,0-2.34.48-3.08,1.44l-.15-.25Z"/>
        <path class="cls-1" d="M348.37,193.77l-6.62.42-1.3,4.46c4.71-1.2,9.08.67,8.88,5.56-.28,6.85-8.17,8.45-10.51,8.03l.06-.28c2.38.06,7.98-2.37,8.34-7.53.27-3.79-3.33-5.58-7.95-4.02l-.25-.11,2.21-7.65,5.57-.42c1.18,0,1.81-.57,2.24-1.41h.28l-.94,2.96Z"/>
      </g>
      <g>
        <path class="cls-1" d="M222.8,243.05v-.28h.36c.97,0,1.76-.77,1.79-1.74v-7.25h-11.46v7.23c.02.97.81,1.76,1.79,1.76h.35v.28s-6.12,0-6.12,0v-.28h.36c.98,0,1.78-.79,1.79-1.76v-15.53c-.02-.97-.82-1.75-1.79-1.75h-.35v-.28s6.12,0,6.12,0v.28h-.36c-.97,0-1.77.78-1.79,1.74v7.47h11.46v-7.49c-.04-.96-.82-1.73-1.79-1.73h-.35v-.28s6.12,0,6.12,0v.28h-.36c-.98,0-1.77.79-1.79,1.76v15.52c.02.98.81,1.76,1.79,1.76h.35v.28s-6.12,0-6.12,0Z"/>
        <path class="cls-1" d="M248.67,226.25v.28h-.42c-.72,0-1.31.5-1.35,1.18v9.42c0,3.91-2.66,6.31-6.98,6.31s-7-2.38-7-6.27v-9.43c-.01-.69-.61-1.21-1.35-1.21h-.42v-.28h5.31v.28h-.41c-.74,0-1.33.52-1.35,1.21v9.08c0,3.63,1.97,5.86,5.19,5.86,3.53,0,5.7-2.11,5.71-5.55v-9.41c-.02-.68-.62-1.19-1.35-1.19h-.42v-.28h4.82Z"/>
        <path class="cls-1" d="M265,241.14c.57,1.15,1.41,1.63,2.16,1.63h.21v.28h-5.75v-.28h.22c.64,0,1.36-.61.99-1.68l-1.53-3.73h-7.08l-1.54,3.65c-.43,1.12.31,1.76.96,1.76h.22v.28h-5.34v-.28h.22c.75,0,1.62-.48,2.2-1.62l5.8-12.41s1.02-2.15,1.08-2.88h.27l6.91,15.28ZM260.95,236.53l-3.15-7.66-3.24,7.66h6.38Z"/>
        <path class="cls-1" d="M288.06,226.25v.28h-.47c-.83,0-1.51.62-1.56,1.4v11.94c0,1.8.27,3.57.27,3.57h-.27l-14.56-13.82v11.68c.02.81.71,1.46,1.56,1.46h.47v.28s-5.29,0-5.29,0v-.28h.47c.85,0,1.54-.65,1.56-1.46v-11.98c0-1.91-.27-3.5-.27-3.5h.3s14.53,13.71,14.53,13.71v-11.61c-.05-.78-.73-1.4-1.56-1.4h-.47v-.28s5.28,0,5.28,0Z"/>
        <path class="cls-1" d="M307.67,226.25v.28h-.42c-.72,0-1.31.5-1.35,1.18v9.42c0,3.91-2.66,6.31-6.98,6.31s-7-2.38-7-6.27v-9.43c-.01-.69-.61-1.21-1.35-1.21h-.42v-.28h5.31v.28h-.42c-.74,0-1.33.52-1.35,1.21v9.08c0,3.63,1.97,5.86,5.19,5.86,3.53,0,5.7-2.11,5.71-5.55v-9.41c-.02-.68-.62-1.19-1.35-1.19h-.42v-.28h4.82Z"/>
        <path class="cls-1" d="M326.91,236l-.3,3.83c-1.46,2.24-4.4,3.61-7.71,3.61-5.67-.03-9.24-3.37-9.24-8.79s3.57-8.79,9.24-8.79c2.33,0,4.83.64,6.56,1.7l.62,3.95h-.25c-.86-3.43-3.47-4.81-6.94-4.81-4.43,0-7.2,3.02-7.2,7.95s2.77,7.88,7.22,7.92c4.17.04,7.45-1.99,7.75-6.58h.25Z"/>
        <path class="cls-1" d="M348.87,234.65c0,5.2-4.22,8.79-9.45,8.79s-9.45-3.59-9.45-8.79,4.22-8.79,9.45-8.79,9.45,3.59,9.45,8.79ZM346.8,234.65c0-4.73-3.26-7.96-7.37-7.96s-7.37,3.22-7.37,7.96,3.25,7.95,7.37,7.95,7.37-3.22,7.37-7.95Z"/>
        <path class="cls-1" d="M358.51,241.9c0-.7.56-1.26,1.26-1.26s1.26.56,1.26,1.26-.56,1.26-1.26,1.26-1.26-.56-1.26-1.26Z"/>
        <path class="cls-1" d="M382.65,223.42c1.21,0,2.85-.29,3.37-.51v3.52h-.28v-.5c0-.9-.71-1.63-1.6-1.67h-5.31v16.77c.03.97.82,1.74,1.79,1.74h.35v.28s-6.12,0-6.12,0v-.28h.36c.96,0,1.75-.76,1.79-1.71v-16.79h-5.31c-.89.04-1.6.77-1.6,1.67v.5h-.28s0-3.52,0-3.52c.52.22,2.16.5,3.37.51h9.46Z"/>
        <path class="cls-1" d="M388.1,243.05v-.28h.38c1.04,0,1.88-.68,1.9-1.52v-13.21c-.02-.84-.86-1.52-1.9-1.52h-.37v-.28s6.34,0,6.34,0v.28h-.38c-1.02,0-1.85.65-1.9,1.47v13.28c.03.83.87,1.49,1.9,1.49h.37v.28s-6.34,0-6.34,0Z"/>
        <path class="cls-1" d="M416.8,226.25v.28h-.47c-.83,0-1.51.62-1.56,1.4v11.94c0,1.8.27,3.57.27,3.57h-.27l-14.56-13.82v11.68c.02.81.71,1.46,1.56,1.46h.47v.28s-5.29,0-5.29,0v-.28h.47c.85,0,1.54-.65,1.56-1.46v-11.98c0-1.91-.27-3.5-.27-3.5h.3s14.53,13.71,14.53,13.71v-11.61c-.05-.78-.73-1.4-1.56-1.4h-.46v-.28s5.28,0,5.28,0Z"/>
        <path class="cls-1" d="M436.2,239.84c-1.3,1.65-4.03,3.61-7.97,3.61-5.53-.03-9.18-3.37-9.18-8.79s3.66-8.79,9.18-8.79c2.58,0,4.65.54,6.54,1.7l.62,3.95h-.25c-.81-3.27-3.02-4.81-6.93-4.81-4.28,0-7.13,3.02-7.13,7.95s2.86,7.95,7.16,7.95c2.33,0,4.4-.72,6.15-2.43l.05-3.72c0-.71-.49-1.1-1.3-1.1h-.4v-.28h5.14v.28h-.38c-.82,0-1.28.39-1.28,1.11v3.37Z"/>
        <path class="cls-1" d="M458.71,234.65c0,5.2-4.22,8.79-9.45,8.79s-9.45-3.59-9.45-8.79,4.22-8.79,9.45-8.79,9.45,3.59,9.45,8.79ZM456.64,234.65c0-4.73-3.26-7.96-7.37-7.96s-7.37,3.22-7.37,7.96,3.25,7.95,7.37,7.95,7.37-3.22,7.37-7.95Z"/>
        <path class="cls-1" d="M489.14,241.24c.16.97.99,1.53,1.91,1.53h.42v.28h-5.82v-.26h.41c.57,0,1.1-.48,1.03-1.08l-1.47-11.52-5.27,10.41s-.8,1.7-1,2.86h-.27l-6.74-13.01-1.26,11.27c-.06.58.46,1.08,1.03,1.08h.41v.26h-5.19v-.28h.42c.94,0,1.78-.59,1.92-1.59l2.17-15.32h.28l7.39,14.22,7.15-14.21h.27l2.24,15.37Z"/>
        <path class="cls-1" d="M508,241.14c.57,1.15,1.41,1.63,2.16,1.63h.21v.28h-5.75v-.28h.22c.64,0,1.36-.61.99-1.68l-1.53-3.73h-7.08l-1.54,3.65c-.43,1.12.31,1.76.96,1.76h.22v.28h-5.33v-.28h.22c.75,0,1.62-.48,2.2-1.62l5.8-12.41s1.02-2.15,1.08-2.88h.27l6.91,15.28ZM503.96,236.53l-3.15-7.66-3.24,7.66h6.38Z"/>
        <path class="cls-1" d="M518.8,226.25c3.53,0,5.69,1.71,5.69,4.54,0,2.37-1.84,4.36-4.35,4.61.61.28,1.56,1.34,2.16,2.19,0,0,1.29,1.75,2.45,3.05,1.14,1.28,1.92,2.11,3.48,2.13v.28h-.88c-3.1,0-4.32-1.41-5.2-2.46-.32-.38-2.52-3.56-2.74-3.84-.76-.95-1.73-1.89-2.84-1.89v-.26s.69.01,1.61-.01c1.55-.04,3.31-.05,4.12-2.41.13-.39.21-.98.2-1.6-.06-2.1-1.47-3.33-3.72-3.44-1.57-.08-2.95,0-3.22-.02v14.13c.02.84.69,1.52,1.59,1.52h.38v.28s-5.72,0-5.72,0v-.28h.38c.89,0,1.55-.66,1.59-1.48v-13.3c-.03-.83-.7-1.46-1.59-1.46h-.38v-.28s7.01,0,7.01,0Z"/>
        <path class="cls-1" d="M534.84,243.05h-5.5v-.28h.31c.84,0,1.53-.68,1.54-1.52v-13.21c-.02-.84-.7-1.52-1.55-1.52h-.3v-.28s5.5,0,5.5,0v.28h-.31c-.83,0-1.51.65-1.54,1.47v13.27c.03.83.71,1.5,1.55,1.5h.31v.28ZM531.9,224.26c1.18-1.28,2.37-2.53,3.55-3.66.44.43.85.93,1.15,1.47-1.5.88-3,1.65-4.5,2.39l-.2-.2Z"/>
        <path class="cls-1" d="M552.69,241.14c.57,1.15,1.41,1.63,2.16,1.63h.21v.28h-5.75v-.28h.22c.64,0,1.36-.61.99-1.68l-1.53-3.73h-7.08l-1.54,3.65c-.43,1.12.31,1.76.96,1.76h.22v.28h-5.33v-.28h.22c.75,0,1.62-.48,2.2-1.62l5.8-12.41s1.02-2.15,1.08-2.88h.27l6.91,15.28ZM548.65,236.53l-3.15-7.66-3.24,7.66h6.38Z"/>
        <path class="cls-1" d="M563.18,241.9c0-.7.56-1.26,1.26-1.26s1.26.56,1.26,1.26-.56,1.26-1.26,1.26-1.26-.56-1.26-1.26Z"/>
        <path class="cls-1" d="M582.02,226.25c3.9,0,6.4,1.82,6.39,4.79-.01,4.27-4.26,6.18-8.06,4.33v-.26s4.45,1.18,5.85-2.83c.14-.39.2-1.03.2-1.51,0-2.28-1.67-3.67-4.42-3.67h-2.71v14.18c.03.83.71,1.5,1.62,1.5h.39v.28s-5.81,0-5.81,0v-.28h.39c.91,0,1.59-.66,1.62-1.49v-13.27c-.02-.84-.71-1.48-1.62-1.48h-.39v-.28s6.54,0,6.54,0Z"/>
        <path class="cls-1" d="M602.34,243.05h-11.38v-.28h.39c.9,0,1.58-.66,1.62-1.49v-13.29c0-.83-.71-1.47-1.62-1.47h-.38v-.28s8.17,0,8.17,0c1.13,0,2.64-.25,3.13-.44v3.17h-.3v-.43c0-.79-.55-1.42-1.4-1.44h-5.81v7.12h4.78c.78-.02,1.13-.54,1.13-1.19v-.36h.3s0,3.93,0,3.93h-.3v-.36c0-.63-.34-1.14-1.07-1.19h-4.85v7.12h4.38c2.69-.04,3.65-1.35,4.44-3.16h.3l-1.54,4.02Z"/>
        <path class="cls-1" d="M612.99,226.25c3.53,0,5.69,1.71,5.69,4.54,0,2.37-1.84,4.36-4.35,4.61.61.28,1.56,1.34,2.16,2.19,0,0,1.29,1.75,2.45,3.05,1.14,1.28,1.92,2.11,3.48,2.13v.28h-.88c-3.1,0-4.32-1.41-5.2-2.46-.32-.38-2.52-3.56-2.74-3.84-.76-.95-1.73-1.89-2.84-1.89v-.26s.69.01,1.61-.01c1.55-.04,3.31-.05,4.12-2.41.13-.39.21-.98.2-1.6-.06-2.1-1.47-3.33-3.72-3.44-1.57-.08-2.95,0-3.22-.02v14.13c.02.84.69,1.52,1.59,1.52h.38v.28s-5.72,0-5.72,0v-.28h.38c.89,0,1.55-.66,1.59-1.48v-13.3c-.03-.83-.7-1.46-1.59-1.46h-.38v-.28s7.01,0,7.01,0Z"/>
        <path class="cls-1" d="M640.05,226.25v.28h-.42c-.72,0-1.31.5-1.35,1.18v9.42c0,3.91-2.66,6.31-6.98,6.31s-7-2.38-7-6.27v-9.43c-.01-.69-.61-1.21-1.35-1.21h-.42v-.28h5.31v.28h-.42c-.74,0-1.33.52-1.35,1.21v9.08c0,3.63,1.97,5.86,5.19,5.86,3.53,0,5.7-2.11,5.71-5.55v-9.41c-.02-.68-.62-1.19-1.35-1.19h-.42v-.28h4.82ZM631.04,224.26c1.18-1.28,2.37-2.53,3.55-3.66.44.43.85.93,1.15,1.47-1.5.88-3,1.65-4.5,2.39l-.2-.2Z"/>
      </g>
    </g>
  </g>
</svg>