<?xml version="1.0" encoding="UTF-8"?>
<svg id="Capa_2" data-name="Capa 2" xmlns="http://www.w3.org/2000/svg" viewBox="0 0 657.08 229.73">
  <defs>
    <style>
      .cls-1 {
        fill: #e5d6c2;
      }
    </style>
  </defs>
  <g id="Capa_1-2" data-name="Capa 1">
    <g>
      <g>
        <path class="cls-1" d="M652.62,98.41l-4.81-4.89c-.98,1.33-2.17,2.46-3.59,3.37-1.42.92-2.96,1.42-4.62,1.51h-.08c-1.53,0-2.84-.38-3.93-1.14-1.09-.76-1.93-1.72-2.52-2.9-.53-.99-.79-2.04-.79-3.15,0-1.41.51-2.77,1.54-4.08.94-1.21,2.43-2.31,4.47-3.29-.94-.98-1.63-2.03-2.08-3.15-.36-.91-.54-1.79-.54-2.63,0-.57.08-1.12.24-1.64.4-1.33,1.15-2.42,2.27-3.27,1.11-.84,2.46-1.3,4.03-1.37h.16c1.93,0,3.52.49,4.77,1.46.51.41.9.77,1.15,1.09l.36.49-2.41,1.21c-.33-1.32-.83-2.27-1.48-2.85-.66-.58-1.41-.87-2.24-.87h-.26c-1.38.13-2.33.67-2.83,1.62-.5.95-.75,1.91-.75,2.89,0,1.83.65,3.45,1.96,4.85l8.43,8.57.12-.28c.66-1.52,1.18-3.29,1.56-5.3l.51.1c-.4,2.06-.92,3.86-1.58,5.4-.07.17-.14.34-.22.5l7.62,7.72h-4.45ZM642.95,96.29c1.57-.24,3.07-1.29,4.49-3.15l-8.75-8.89c-1.9.91-2.99,1.86-3.28,2.85-.28.99-.43,1.75-.43,2.29,0,.87.2,1.74.61,2.59.66,1.41,1.58,2.49,2.75,3.25s2.36,1.13,3.54,1.13c.34,0,.69-.03,1.05-.08Z"/>
        <path class="cls-1" d="M313.93,17.25c3.95,5.53,6.99,12.85,6.99,20.18,0,2.71-.79,7.44-2.03,9.92,0,.23-.56.23-.56.34-.79,1.69-2.48,4.28-5.19,6.77-.11,0-.23.56-.34.56-1.58.79-2.71,2.48-4.4,3.61-5.19,3.72-14.32,6.65-22.21,6.65h-1.24c.45,2.37,1.92,3.61,2.59,5.75.68,2.25,1.01,4.96,1.01,7.89,0,2.48-.23,5.07-.68,7.56-.68,3.61-2.14,6.77-2.93,10.49-.11.56-.45,1.35-.45,1.92,0,.45.11,1.02.79,1.02,3.83,0,3.38-3.83,5.41-3.83q.34,0,.34.23c0,2.25-2.59,4.51-5.07,4.51-2.25,0-3.27-1.8-4.85-2.82-.34-1.58-.79-3.04-.79-4.51,0-7.56,5.41-13.87,5.41-21.09,0-.79-1.58-4.85-2.25-4.85s-2.93,3.95-4.62,6.09c-.45.68-.79,1.58-1.24,2.26s-1.35,1.24-1.92,1.92c-2.82,4.29-5.19,8.01-10.26,12.18-.34.34-.9.34-1.24.56-.34.23-.34.79-.68,1.01-2.82,2.25-6.09,3.61-9.25,5.41,1.69.68,4.28,1.35,6.77,1.35h2.14c.56,0,1.13-1.35,2.14-1.35.23,0,.56.11.79.34-.68,1.69-2.26,2.03-3.95,2.03-3.38,0-6.65-1.01-9.92-1.01-2.59,0-4.85,1.24-7.55,1.58-3.16.45-6.31.56-9.7.56-2.03,0-5.86.11-6.65-1.58.23-2.48,2.82-2.93,5.86-2.93,4.29,0,8.46.34,12.74.68.9.11,1.69.34,2.37.34,1.92,0,3.72-2.14,5.64-3.5.23-.23.68-.11.9-.34,2.14-1.58,4.51-4.28,6.09-6.43.9-1.24,2.37-2.48,3.5-3.83.23-.23.11-.68.34-.9,1.02-1.24,2.71-3.16,3.83-4.85.23-.34.11-.68.34-.9,1.92-3.16,5.07-6.99,7.33-10.94,0-1.35-2.03-.68-2.48-1.58-1.13-.68-1.8-1.24-1.8-2.14,0-1.47,1.47-2.03,3.04-2.03,1.47,0,3.04.45,3.83,1.01,1.35-.9,1.69-2.59,2.59-4.17.23-.45.79-.68.9-1.02.56-.9.79-1.92,1.35-2.82,2.59-5.41,6.54-10.26,10.83-17.03,1.13-1.69,3.16-3.5,4.51-5.75.9-1.58,1.47-2.71,6.09-8.01.68-.68.79-1.13,1.24-1.58,1.13-1.13,2.82-1.69,3.5-3.16-.45-3.38-8.8-7.55-8.57-7.44-1.13-.68-1.92-1.69-2.93-2.25-1.47-.79-3.61-1.24-5.07-1.92-1.69-.68-3.27-1.69-4.85-2.26-1.35-.34-2.93-.23-4.51-.56-3.38-.56-6.77-1.35-11.84-1.35-9.02,0-18.94,1.8-25.94,4.17-1.01.45-1.8,1.13-3.16,1.69-4.4,1.92-8.8,4.06-12.52,6.65-.23.23-.34.79-.56,1.02-2.26,1.69-4.4,3.04-7.44,6.31-.56.79-2.37,2.14-2.37,2.93s-1.92,3.16-2.71,4.17c-.9.9-3.04,6.54-3.04,12.07,0,4.51,1.35,8.46,3.72,11.28.79,1.02,1.92,3.16,3.16,4.17.45.34,1.01.34,1.58.68.34.11.68.68,1.01.9.45.34,1.02.34,1.58.68.34.23.56.79.9.9,1.8.9,5.64,1.58,9.25,1.69,20.3,0,33.72-9.36,44.43-18.83,2.93-2.59,6.65-8.34,7.44-8.34.23,0,.23.34.23.56,0,3.83-5.53,11.05-8.23,13.87-4.4,4.62-9.81,7.89-17.82,11.5-5.75,2.59-12.52,3.16-18.61,3.16-1.47,0-3.04,0-4.4-.11l.68.11c-1.13-.11-2.71-.45-3.95-.68-1.35-.23-2.71-.11-3.83-.34s-2.03-.9-3.27-1.24c-.56-.23-1.24-.11-1.92-.34-.23-.23,0-.68-.45-.68h-.68c-.9,0-2.71-2.14-3.95-2.82-.45-.23-1.24-.45-1.24-.79v-.45q0-.11-.11-.11h-.45c-.45,0-3.95-5.3-4.62-6.99-.9-2.14-1.35-4.96-1.47-8.01,0-1.8-.11-4.4.56-6.77.11-.68.9-1.24,1.24-2.26.23-.56.11-1.01.34-1.58,3.27-7.78,10.71-13.42,14.66-16.58.34-.23,1.01-1.13,1.35-1.35.11,0,.23.11.34.11-.11,0,2.59-1.8,4.17-2.59,1.35-.68,2.93-1.24,4.4-1.92s2.71-1.69,4.17-2.26c2.93-1.13,6.43-2.14,9.92-2.93,1.69-.34,3.27-1.01,4.85-1.24,1.8-.34,3.95-.11,5.75-.34,2.14-.23,6.43-.34,9.58-.34.23,0,.34.34.68.34s.45-.34,1.24-.34c1.69,0,3.16.9,4.85,1.01,1.47.23,2.82,0,4.17.23,3.5.68,8.46,2.59,12.4,4.51.11.11.23.56.34.68,4.4,2.37,8.68,4.96,12.86,8.91,3.38-3.16,6.2-4.74,9.13-6.54,1.13-.68,4.17-1.69,5.75-1.69.56,0,.9.11,1.02.45-.11.56-5.64,1.92-8.34,3.5-2.03,1.13-4.4,3.83-6.09,5.41l.23.79ZM236.01,96.98c-2.37,0-4.62.34-6.09,1.58.34.45.79.56,1.35.56,4.85,0,12.4-.11,15.67-1.47-3.27,0-7.33-.68-10.94-.68ZM276.71,60.55c-.68,0-1.35.23-1.92.56.11,1.92,1.69,2.59,3.83,2.59,0-.79.68-1.13.68-2.03,0-.11-.11-.34-.11-.56-.79-.34-1.69-.56-2.48-.56ZM316.41,31.57c0-5.3-1.58-9.25-3.61-12.63,0-.23,0-.34-.11-.34-.9,0-.56.45-.79.9-1.13,1.47-2.82,2.82-3.27,3.27-.23.34-.23,1.13-.56,1.58-.11.11-.56.11-.68.34-.23.23-.9,1.58-1.24,2.25-4.74,7.33-7.89,12.97-11.5,19.85-2.37,4.62-4.62,9.36-6.77,13.42-.56,1.13-2.14,3.16-2.14,3.61,0,.11.11.22.56.22,3.72-.11,6.99-1.24,9.58-2.25,6.99-2.82,7.44-4.62,11.16-6.77.68-1.47,2.59-2.71,3.27-3.83.68-1.01,2.03-3.5,2.82-5.07.34-.56.79-.79,1.02-1.24.22-.56.11-1.47.34-2.26.45-2.03,1.24-4.17,1.58-6.09.22-1.69.34-3.38.34-4.96Z"/>
        <g>
          <path class="cls-1" d="M520.56,140.68v-2.28c1.06-1.25,2.45-2.68,4.18-4.28,1.4-1.31,2.79-2.68,4.17-4.13,1.38-1.44,2.53-2.9,3.44-4.36.92-1.46,1.39-2.9,1.42-4.29-.01-1.08-.24-2.12-.68-3.13-.44-1-1.08-1.83-1.9-2.48s-1.82-1.01-2.98-1.06c-1.27,0-2.41.4-3.43,1.21s-1.71,1.93-2.07,3.36l-2.14-1.56c.87-1.16,1.99-2.05,3.36-2.67s2.81-.93,4.31-.93c1.44.01,2.77.32,4.01.92,1.23.6,2.23,1.45,3,2.55.76,1.1,1.15,2.42,1.15,3.95-.08,1.68-.75,3.37-2.03,5.08-1.27,1.71-2.83,3.36-4.66,4.97-1.83,1.6-3.62,3.07-5.34,4.4-1.15.91-2.15,1.73-3.01,2.45h10.05c1.13,0,2.18-.48,3.13-1.43.95-.95,1.42-2,1.42-3.15h.57v6.85h-15.97Z"/>
          <path class="cls-1" d="M560.79,140.68c-.32,0-.59-.11-.81-.34s-.34-.5-.34-.81.11-.57.34-.79.49-.34.81-.34.57.11.79.34c.22.22.34.49.34.79s-.11.59-.34.81c-.22.22-.49.34-.79.34Z"/>
          <path class="cls-1" d="M569.84,138.89c-1.51-1.19-2.71-2.8-3.61-4.81s-1.35-4.25-1.35-6.7.45-4.69,1.35-6.7,2.1-3.62,3.61-4.81c1.51-1.19,3.18-1.79,5.02-1.79s3.51.6,5.02,1.79c1.51,1.19,2.71,2.8,3.61,4.81s1.35,4.25,1.35,6.7-.45,4.69-1.35,6.7-2.1,3.61-3.61,4.81-3.18,1.79-5.02,1.79-3.51-.6-5.02-1.79ZM578.73,138.4c1.17-1.14,2.1-2.67,2.79-4.6.69-1.93,1.04-4.06,1.04-6.41s-.35-4.49-1.04-6.41c-.69-1.93-1.62-3.46-2.79-4.6-1.17-1.14-2.46-1.71-3.87-1.71s-2.72.57-3.88,1.71c-1.16,1.14-2.09,2.68-2.78,4.6-.69,1.93-1.04,4.06-1.04,6.41s.35,4.49,1.04,6.41c.69,1.93,1.62,3.46,2.78,4.6,1.16,1.14,2.45,1.71,3.88,1.71s2.7-.57,3.87-1.71Z"/>
          <path class="cls-1" d="M592.91,140.68h-2.28c.11-3.46.72-6.76,1.85-9.91s2.42-5.96,3.88-8.45c1.46-2.49,2.74-4.48,3.85-5.97h-9.32c-1.13,0-2.18.47-3.13,1.42s-1.42,2-1.42,3.15h-.57v-6.85h16.78c-1.66,2.53-3.22,5.23-4.67,8.1-1.45,2.87-2.63,5.86-3.54,8.96-.91,3.11-1.39,6.28-1.42,9.53Z"/>
          <path class="cls-1" d="M542.39,139.11c-1.5-1.1-2.57-2.56-3.18-4.38l2.25-.69c.57,2.18,1.36,3.72,2.39,4.65,1.03.92,2.12,1.38,3.28,1.38h.14c2.04-.08,3.65-.88,4.83-2.4,1.17-1.52,1.76-3.38,1.76-5.57s-.6-4.04-1.8-5.59c-1.2-1.55-2.77-2.38-4.71-2.5h-.18c-1.06,0-2.06.23-3.01.68-.95.45-1.82,1.07-2.61,1.85l-.67-.02c.33-4.22.62-7.34.86-9.35.24-2.02.37-3.03.39-3.03l12.54.04v6.84h-.57c0-1.15-.47-2.2-1.42-3.14s-2-1.42-3.14-1.42h-7.14c-.24,1.86-.53,4.97-.87,9.33,1.74-1.58,3.72-2.37,5.95-2.37,1.6,0,3.05.39,4.36,1.18,1.31.78,2.36,1.83,3.13,3.14.78,1.31,1.17,2.77,1.17,4.36s-.39,3.05-1.17,4.36c-.78,1.31-1.82,2.36-3.13,3.13-1.31.78-2.77,1.17-4.36,1.17-1.88,0-3.58-.55-5.08-1.65Z"/>
        </g>
        <g>
          <path class="cls-1" d="M575.09,178.44v-2.4c1.11-1.32,2.58-2.83,4.41-4.51,1.48-1.38,2.94-2.83,4.4-4.35,1.45-1.52,2.67-3.06,3.63-4.6.97-1.54,1.46-3.06,1.49-4.53-.01-1.14-.25-2.24-.72-3.3-.47-1.06-1.13-1.93-2-2.62-.87-.69-1.92-1.06-3.14-1.12-1.34,0-2.54.42-3.62,1.27-1.08.85-1.81,2.03-2.18,3.55l-2.25-1.65c.92-1.22,2.1-2.16,3.55-2.82,1.45-.65,2.96-.98,4.55-.98,1.52.01,2.93.34,4.23.97,1.3.63,2.36,1.53,3.16,2.69.81,1.16,1.21,2.55,1.21,4.17-.08,1.77-.8,3.55-2.14,5.36-1.34,1.8-2.98,3.55-4.92,5.24-1.94,1.69-3.81,3.24-5.64,4.65-1.21.96-2.27,1.82-3.17,2.59h10.61c1.2,0,2.3-.5,3.3-1.5,1-1,1.5-2.11,1.5-3.32h.61v7.22h-16.85Z"/>
          <path class="cls-1" d="M600.05,176.55c-1.59-1.26-2.86-2.95-3.81-5.07-.95-2.12-1.42-4.48-1.42-7.07s.47-4.94,1.42-7.07c.95-2.12,2.22-3.81,3.81-5.07,1.59-1.26,3.36-1.89,5.29-1.89s3.7.63,5.29,1.89,2.86,2.95,3.81,5.07c.95,2.12,1.42,4.48,1.42,7.07s-.47,4.95-1.42,7.07c-.95,2.12-2.22,3.81-3.81,5.07s-3.36,1.89-5.29,1.89-3.7-.63-5.29-1.89ZM609.42,176.03c1.23-1.2,2.21-2.82,2.94-4.85.73-2.03,1.1-4.29,1.1-6.76s-.37-4.73-1.1-6.76-1.71-3.65-2.94-4.85c-1.23-1.2-2.59-1.81-4.08-1.81s-2.87.6-4.09,1.81c-1.22,1.2-2.2,2.82-2.93,4.85s-1.1,4.29-1.1,6.76.37,4.73,1.1,6.76c.73,2.03,1.71,3.65,2.93,4.85s2.59,1.81,4.09,1.81,2.85-.6,4.08-1.81Z"/>
          <path class="cls-1" d="M615.84,178.44v-2.4c1.11-1.32,2.58-2.83,4.41-4.51,1.48-1.38,2.94-2.83,4.4-4.35,1.45-1.52,2.67-3.06,3.63-4.6.97-1.54,1.46-3.06,1.49-4.53-.01-1.14-.25-2.24-.72-3.3-.47-1.06-1.13-1.93-2-2.62-.87-.69-1.92-1.06-3.14-1.12-1.34,0-2.54.42-3.62,1.27-1.08.85-1.81,2.03-2.18,3.55l-2.25-1.65c.92-1.22,2.1-2.16,3.55-2.82,1.45-.65,2.96-.98,4.55-.98,1.52.01,2.93.34,4.23.97,1.3.63,2.36,1.53,3.16,2.69.81,1.16,1.21,2.55,1.21,4.17-.08,1.77-.8,3.55-2.14,5.36-1.34,1.8-2.98,3.55-4.92,5.24-1.94,1.69-3.81,3.24-5.64,4.65-1.21.96-2.27,1.82-3.17,2.59h10.61c1.2,0,2.3-.5,3.3-1.5,1-1,1.5-2.11,1.5-3.32h.61v7.22h-16.85Z"/>
          <path class="cls-1" d="M644.78,178.44c-2.44,0-4.4-.64-5.89-1.92-1.49-1.28-2.46-2.77-2.91-4.47-.45-1.7-.68-3.25-.68-4.66,0-.88.07-1.78.21-2.69.35-2.41,1.11-4.69,2.29-6.85,1.18-2.16,2.74-3.94,4.7-5.36,1.96-1.41,4.28-2.18,6.96-2.31l.02.61c-1.99.08-3.72.66-5.19,1.72-1.47,1.07-2.68,2.46-3.63,4.2-.95,1.73-1.67,3.65-2.14,5.75,1.6-1.43,3.54-2.21,5.83-2.34h.06c2.56,0,4.73.83,6.5,2.49,1.78,1.66,2.73,3.78,2.87,6.37v.13c0,2.53-.82,4.68-2.47,6.45s-3.77,2.73-6.36,2.88h-.17ZM649.92,175.27c.99-1.57,1.48-3.43,1.48-5.58l-.02-.63c-.06-2.42-.65-4.42-1.77-5.98-1.13-1.57-2.85-2.35-5.18-2.35h-.06c-2.34.14-4,1-4.99,2.58s-1.48,3.46-1.48,5.65c0,2.67.6,4.85,1.8,6.54,1.13,1.56,2.85,2.34,5.18,2.34h.06c2.34-.14,4-1,4.99-2.57Z"/>
        </g>
        <g>
          <path class="cls-1" d="M344.72,94.01c-5.08-3.01-9.13-7.06-12.14-12.14-3.01-5.08-4.52-10.72-4.52-16.91s1.51-11.83,4.52-16.91c3.01-5.08,7.06-9.12,12.14-12.14,5.08-3.01,10.72-4.52,16.91-4.52s11.78,1.51,16.86,4.52c5.08,3.01,9.13,7.06,12.17,12.14,3.03,5.08,4.55,10.71,4.55,16.91s-1.52,11.83-4.55,16.91c-3.03,5.08-7.09,9.12-12.17,12.14-5.08,3.01-10.7,4.52-16.86,4.52s-11.83-1.51-16.91-4.52ZM373.75,94.36c3.48-1.81,6.37-4.25,8.67-7.29,2.3-3.05,4.03-6.49,5.2-10.32,1.17-3.83,1.75-7.76,1.75-11.79s-.58-7.95-1.75-11.76-2.9-7.25-5.2-10.32c-2.3-3.06-5.19-5.5-8.67-7.32-3.48-1.81-7.52-2.72-12.11-2.72s-8.68.91-12.14,2.72c-3.46,1.82-6.35,4.25-8.67,7.32-2.32,3.06-4.05,6.5-5.2,10.32-1.15,3.81-1.72,7.74-1.72,11.76s.57,7.96,1.72,11.79c1.15,3.83,2.88,7.27,5.2,10.32,2.31,3.05,5.2,5.48,8.67,7.29,3.46,1.82,7.51,2.72,12.14,2.72s8.63-.91,12.11-2.72Z"/>
          <path class="cls-1" d="M408.44,96.16c-3.03-1.45-5.29-3.22-6.77-5.32-1.48-2.1-2.37-4.18-2.67-6.25l5.54-1c.8,4.1,2.68,7.35,5.64,9.77,2.96,2.42,6.41,3.62,10.34,3.62h.3c2.7-.13,5.34-.85,7.92-2.15,2.58-1.3,4.61-2.99,6.09-5.07,1.48-2.08,2.22-4.37,2.22-6.87l-.05-1.15c-.6-4.06-2.53-7.19-5.79-9.39-3.27-2.2-7.01-4.11-11.24-5.75-3.2-1.3-6.24-2.75-9.12-4.35-2.88-1.6-5.25-3.63-7.12-6.09-1.87-2.46-2.83-5.64-2.9-9.54.03-3.4.9-6.22,2.6-8.47,1.7-2.25,3.96-3.94,6.79-5.07,2.83-1.13,5.88-1.7,9.14-1.7,5.39,0,9.62,1.09,12.69,3.27,3.06,2.18,5.21,5.29,6.45,9.32l-5.35,1.45c-.57-2.4-1.35-4.55-2.35-6.44s-2.41-3.4-4.25-4.5c-1.83-1.1-4.36-1.65-7.59-1.65-3.56,0-6.7,1.2-9.42,3.6-2.71,2.4-4.07,5.36-4.07,8.89v.25c.23,2.66,1.16,4.89,2.77,6.67,1.62,1.78,3.67,3.32,6.17,4.62,2.5,1.3,5.18,2.53,8.04,3.7,3.3,1.3,6.44,2.76,9.44,4.4,3,1.63,5.46,3.67,7.39,6.12s2.96,5.57,3.1,9.37c-.03,4.83-2.03,9-5.99,12.51-3.96,3.51-9.33,5.37-16.09,5.57-4.9-.13-8.86-.92-11.89-2.37Z"/>
          <path class="cls-1" d="M503.26,98.53h-13.49v-1.45c.73,0,1.45-.28,2.15-.85.53-.47.8-.97.8-1.5,0-.3-1.83-5.46-5.5-15.49l-1.6-4.35h-30.12l-7.04,19.33-.05.5c0,.53.31,1.06.92,1.57.62.52,1.29.77,2.02.77v1.45h-8.84v-1.45c.7,0,1.53-.29,2.5-.87.96-.58,1.61-1.24,1.95-1.97l22.83-62.84h6.15l11.34,31.22,11.54,31.62c.3.73.93,1.39,1.9,1.97.97.58,1.82.87,2.55.87v1.45ZM485.12,73.45l-14.54-39.96-14.59,39.96h29.12Z"/>
          <path class="cls-1" d="M553.46,98.53h-6.64l-35.57-61.55v57.25c0,.7.3,1.35.9,1.95s1.27.9,2,.9v1.45h-7.19v-1.45c.7,0,1.35-.3,1.95-.9s.9-1.25.9-1.95v-59.75l-1.75-3.1h6.64l35.52,61.54v-57.25c0-.7-.3-1.35-.9-1.95s-1.27-.9-2-.9v-1.45h7.19v1.45c-.7,0-1.35.3-1.95.9s-.9,1.25-.9,1.95v59.75l1.8,3.1Z"/>
          <path class="cls-1" d="M618.01,98.53h-13.49v-1.45c.73,0,1.45-.28,2.15-.85.53-.47.8-.97.8-1.5,0-.3-1.83-5.46-5.5-15.49l-1.6-4.35h-30.12l-7.04,19.33-.05.5c0,.53.31,1.06.92,1.57.62.52,1.29.77,2.02.77v1.45h-8.84v-1.45c.7,0,1.53-.29,2.5-.87.96-.58,1.61-1.24,1.95-1.97l22.83-62.84h6.15l11.34,31.22,11.54,31.62c.3.73.93,1.39,1.9,1.97.97.58,1.82.87,2.55.87v1.45ZM599.87,73.45l-14.54-39.96-14.59,39.96h29.12Z"/>
        </g>
        <path class="cls-1" d="M8.46,177.76c1.13-1.24,2.03-5.41,3.27-5.41.68-1.58,1.8-3.16,3.16-4.51,1.47-1.47,2.25-3.04,3.83-4.51.9-.79,2.14-1.47,3.27-2.26.23-.23.34-.79.56-.9.34-.23.68-.11,1.01-.34,4.06-3.16,9.58-6.65,15-8.01,7.44-2.48,15.56-4.29,25.37-4.29,6.54,0,14.77,1.47,21.09,4.62.23,0,.45.56.79.56h.56c.45,0,.9.79,1.24,1.01,2.26,1.35,4.85,2.03,6.65,5.41.9,1.58,1.8,3.04,1.8,5.07,0,1.35-.34,2.82-1.8,4.85-.34.56-.34,1.24-.68,1.58-.68,1.01-2.25,2.14-3.5,3.27-.79.68-1.47,1.58-2.26,2.25-1.24.9-5.07,3.16-4.74,3.16h-.9c-1.35,0-3.83,2.37-4.29,2.59s-1.13.11-1.58.34c-.23,0-.56.56-.9.56h-.56c-.22,0-.68.68-1.01.68h-.56c-.45,0-.9.79-1.47.9-.56.23-1.24.11-1.92.34-4.17,1.47-8.8,2.71-14.32,3.5-3.27.45-5.98,1.01-8.79,1.01-12.52,0-25.6-2.82-34.51-7.33-.9,1.8-1.35,4.06-1.35,6.31,0,7.56,2.71,11.05,8.79,14.1,4.06,2.03,11.62,3.5,18.94,3.5,6.09,0,13.08-1.8,20.41-4.74,1.47-.56,2.71-1.58,4.17-2.26.45-.23,1.13-.11,1.58-.34,1.47-.45,3.5-1.92,5.07-2.82.79-.45,1.58-.56,2.25-1.01.34-.11.68-.79,1.01-.9.45-.34.9-.11,1.24-.34,4.96-2.93,10.6-6.77,14.77-10.94,1.24-.56,2.48-2.14,3.83-3.16.56-.45,1.35-.79,1.92-1.24,2.82-2.71,5.19-5.64,8.34-8.34,5.3-5.3,3.83-4.51,10.49-11.5.68-1.35,2.14-2.82,3.27-4.17,5.75-6.99,11.61-14.55,16.91-22.44,1.69-2.59,3.61-5.07,5.41-7.67.79-1.24,1.13-2.14,2.25-4.17.23-.45.79-.56,1.01-1.02,0,0,.9-2.14.9-1.58.56-1.35,2.03-4.4,2.93-5.07,1.35-1.58,2.59-7.22,5.3-7.22,1.58,0,2.03,1.69,2.03,2.59,0,1.13-.45,2.48-.68,3.27-.68,4.51-3.83,11.61-5.98,17.7-1.35,3.83-2.82,7.67-4.17,11.5-1.02,2.82-2.37,5.41-3.27,8.57-1.58,5.41-3.16,9.36-6.09,15.79-1.02,2.25-1.69,5.3-2.48,8.01-.23.56-.79,1.01-1.01,1.58-.23.56-.11,1.35-.34,1.92,0,.11-.56.45-.56.56-.34.9-.11,1.8-.68,2.59,0,.11.11.11.23.11.9,0,3.5-4.62,5.19-7.1,6.65-9.7,14.55-19.62,21.09-30.78,4.85-7.44,9.58-14.32,15.11-21.76.11-.11.56-.23.68-.34.45-.9,2.82-4.51,2.82-3.83.79-1.69,2.93-3.72,4.51-5.75,4.29-5.41,9.47-11.73,16.35-18.83.56-.56,1.01-1.47,1.58-1.92.56-.56,1.35-.79,1.92-1.35,2.59-2.03,4.51-3.95,8.01-6.43.11,0,.23-.56.34-.56,1.24-1.24,4.06-2.25,6.65-3.5,3.83-1.8,8.01-3.5,12.85-4.85,1.13-.34,3.5-.79,5.64-.79,1.58,0,5.07.56,5.07,2.14,0,.34-.34.45-.45.45-.56,0-1.69-1.47-4.17-1.47s-5.75.9-7.33,1.24c-4.4,1.13-8.12,2.71-11.95,4.85-1.47.79-3.04,1.35-4.4,2.26-.68.34-1.24,1.13-1.92,1.58-2.25,1.47-4.62,3.04-5.75,4.17-.68.45-1.01,1.35-1.69,1.92-.45.45-1.35.79-1.92,1.24-2.25,2.03-4.4,4.17-6.31,7.1-3.5,3.5-7.22,8.46-12.52,14.32-.34.45-.34,1.01-.68,1.35-.23.23-.68.34-.9.56-4.17,4.96-8.68,11.5-12.85,17.37-.23.23-1.24,1.92-1.24,1.69v.45c0,.34-.68.11-.68.45v.45c0,.23-.56.34-.68.45-.56,1.35-1.8,3.04-2.82,4.51-1.92,2.82-4.17,6.43-5.75,9.58-.11.11-.68.23-.68.45v.34c0,.56-1.35,1.35-1.58,1.69-.68,1.13-3.83,6.2-3.83,5.98v.34c0,.23-.56.34-.68.45v.45c0,.45-.45.34-.68.56-1.13,2.59-4.4,6.54-5.75,8.23-.23.45-.23.9-.56,1.35-1.24,1.24-1.47,2.03-3.61,4.17v.45c0,.79-1.58,2.03-2.14,3.04-1.35,2.14-3.16,4.51-4.85,6.77-1.35,1.69-4.29,6.2-5.75,6.32-1.01,0-1.24-1.69-1.24-2.48,0-3.83,3.16-14.09,5.07-20.18.34-1.13,1.13-1.58,1.13-3.04,0-1.58.79-1.92,1.13-3.04.9-2.59,2.14-5.3,3.16-8.01,3.5-9.36,7.1-19.73,10.6-28.87.23-.56,1.24-1.92,1.24-2.82-4.85,6.09-8.91,13.76-14.1,20.18-.34.56-.79,1.69-1.58,2.48-.23.34-.68.45-.9.68s-.11.68-.34,1.01c-.23.23-.79.34-1.02.56-.45.79.11,0-1.58,2.59-1.58,2.26-3.61,4.17-5.41,6.43,0,0-1.13,1.13-2.25,2.48-.23.23-.11.79-.34,1.02-.9,1.01-2.03,1.8-2.82,2.82-5.64,6.32-10.71,12.29-17.03,18.27-2.14,2.03-4.29,3.72-6.43,5.53-4.06,3.5-8.46,6.88-13.42,9.92-.68.34-1.47.45-2.26.9-.56.34-1.01.9-1.58,1.24-9.25,5.3-21.88,10.71-33.94,10.71-5.08,0-10.26-.34-15-1.69-6.43-1.69-16.01-8.68-16.01-21.09,0-1.47.11-3.04.56-4.51-.68-1.35-1.92-2.14-3.16-2.93-2.03-2.59-4.96-5.53-4.96-11.95,0-2.71.68-5.3,2.03-7.56.9-1.69,3.38-4.17,4.28-4.17.11,0,.23,0,.23.11,0,.34-1.58,1.58-2.37,2.93-1.8,2.82-2.71,5.53-2.71,8.91,0,6.77,3.83,9.58,7.1,12.74h-.11ZM69.35,150.47h-1.24c-.45,0-.79-.23-1.01-.23-7.67,0-16.46,1.8-22.78,3.83-1.92.68-3.38,1.58-4.74,2.26-8.23,3.95-8.57,4.28-10.94,6.09-6.54,4.85-12.85,10.37-16.01,17.82,8.34,5.3,20.75,7.55,34.28,7.55,6.77,0,10.49-1.13,15.67-2.37,3.38-.79,6.99-1.24,9.92-2.93,6.88-2.82,10.26-5.07,12.85-6.31,4.29-2.93,9.58-6.88,9.58-12.52-.45-8.8-17.59-13.19-25.6-13.19Z"/>
        <g>
          <path class="cls-1" d="M187.07,178.56v-1.45c.7,0,1.35-.3,1.95-.9s.9-1.25.9-1.95v-58.55c0-.7-.3-1.35-.9-1.95s-1.25-.9-1.95-.9v-1.45h11.49v1.45c-.73,0-1.4.3-2,.9s-.9,1.25-.9,1.95v58.55c0,.7.3,1.35.9,1.95s1.26.9,2,.9v1.45h-11.49Z"/>
          <path class="cls-1" d="M239.53,178.56c-6.19,0-11.83-1.51-16.91-4.52-5.08-3.01-9.13-7.06-12.14-12.14-3.01-5.08-4.52-10.72-4.52-16.91s1.51-11.83,4.52-16.91c3.01-5.08,7.06-9.12,12.14-12.14,5.08-3.01,10.72-4.52,16.91-4.52,4.43,0,8.7.85,12.81,2.55,4.11,1.7,7.75,4.13,10.92,7.29l-4.4,5.1c-4.16-4.73-8.43-8.08-12.79-10.04-3.5-1.6-6.89-2.4-10.19-2.4-.83,0-2.46.14-4.9.42-2.43.28-5.27,1.74-8.52,4.37-3.25,2.63-5.84,6.18-7.77,10.64-1.93,4.46-2.9,9.67-2.9,15.64,0,4.03.57,7.96,1.72,11.79,1.15,3.83,2.88,7.27,5.2,10.32,2.31,3.05,5.2,5.48,8.67,7.29,3.46,1.82,7.51,2.72,12.14,2.72,4.26,0,8.35-.81,12.26-2.42,3.91-1.62,7.4-3.94,10.47-6.97l1,1c-3.16,3.16-6.8,5.59-10.92,7.29-4.11,1.7-8.38,2.55-12.81,2.55Z"/>
          <path class="cls-1" d="M324.05,178.56h-13.49v-1.45c.73,0,1.45-.28,2.15-.85.53-.47.8-.97.8-1.5,0-.3-1.83-5.46-5.5-15.49l-1.6-4.35h-30.12l-7.04,19.33-.05.5c0,.53.31,1.06.92,1.57.62.52,1.29.77,2.02.77v1.45h-8.84v-1.45c.7,0,1.53-.29,2.5-.87.97-.58,1.62-1.24,1.95-1.97l22.83-62.84h6.14l11.34,31.22,11.54,31.62c.3.73.93,1.39,1.9,1.97.96.58,1.81.87,2.55.87v1.45ZM305.92,153.48l-14.54-39.96-14.59,39.96h29.12Z"/>
          <path class="cls-1" d="M374.26,178.56h-6.64l-35.57-61.55v57.25c0,.7.3,1.35.9,1.95s1.27.9,2,.9v1.45h-7.19v-1.45c.7,0,1.35-.3,1.95-.9s.9-1.25.9-1.95v-59.75l-1.75-3.1h6.64l35.52,61.54v-57.25c0-.7-.3-1.35-.9-1.95-.6-.6-1.27-.9-2-.9v-1.45h7.19v1.45c-.7,0-1.35.3-1.95.9-.6.6-.9,1.25-.9,1.95v59.75l1.8,3.1Z"/>
          <path class="cls-1" d="M399.01,174.04c-5.08-3.01-9.12-7.06-12.14-12.14-3.01-5.08-4.52-10.72-4.52-16.91s1.51-11.83,4.52-16.91c3.01-5.08,7.06-9.12,12.14-12.14,5.08-3.01,10.72-4.52,16.91-4.52s11.78,1.51,16.86,4.52c5.08,3.01,9.13,7.06,12.16,12.14,3.03,5.08,4.55,10.71,4.55,16.91s-1.52,11.83-4.55,16.91c-3.03,5.08-7.09,9.12-12.16,12.14-5.08,3.01-10.7,4.52-16.86,4.52s-11.83-1.51-16.91-4.52ZM428.03,174.38c3.48-1.81,6.37-4.25,8.67-7.29,2.3-3.05,4.03-6.49,5.2-10.32,1.17-3.83,1.75-7.76,1.75-11.79s-.58-7.95-1.75-11.76-2.9-7.25-5.2-10.32c-2.3-3.06-5.19-5.5-8.67-7.32-3.48-1.81-7.52-2.72-12.11-2.72s-8.68.91-12.14,2.72c-3.46,1.82-6.35,4.25-8.67,7.32-2.31,3.06-4.05,6.5-5.2,10.32-1.15,3.81-1.72,7.74-1.72,11.76s.58,7.96,1.72,11.79c1.15,3.83,2.88,7.27,5.2,10.32,2.31,3.05,5.2,5.48,8.67,7.29,3.46,1.82,7.51,2.72,12.14,2.72s8.63-.91,12.11-2.72Z"/>
          <path class="cls-1" d="M505.54,178.56c-2.43,0-4.55-.56-6.34-1.67-1.8-1.12-3.36-2.58-4.7-4.4-1.33-1.81-2.51-3.8-3.52-5.97-1.02-2.16-1.94-4.29-2.77-6.37-.83-2.08-1.66-3.98-2.47-5.7-.82-1.71-1.7-3.1-2.65-4.15-.95-1.05-2.04-1.57-3.27-1.57h-14.64v25.53c0,.7.3,1.35.9,1.95.6.6,1.25.9,1.95.9v1.45h-11.49v-1.45c.73,0,1.4-.3,2-.9s.9-1.25.9-1.95v-58.55c0-.7-.3-1.35-.9-1.95s-1.27-.9-2-.9v-1.45h26.03c3.43,0,6.56.84,9.39,2.52,2.83,1.68,5.09,3.94,6.77,6.77,1.68,2.83,2.52,5.96,2.52,9.39,0,4.66-1.49,8.7-4.47,12.12s-6.75,5.52-11.31,6.32c3.13,1.6,5.62,4.05,7.47,7.34,1.85,3.3,3.39,6.69,4.62,10.19.8,2,1.58,3.83,2.35,5.5.77,1.67,1.6,3.01,2.5,4.02.9,1.02,1.95,1.52,3.15,1.52v1.45ZM479.06,147.33c5.29,0,9.36-1.57,12.19-4.7,2.83-3.13,4.25-7.31,4.25-12.54s-1.42-9.41-4.25-12.54c-2.83-3.13-6.89-4.7-12.19-4.7h-13.89v34.47h13.89Z"/>
        </g>
      </g>
      <g>
        <path class="cls-1" d="M239.89,229.45v-.2h.26c.69,0,1.26-.55,1.28-1.24v-5.17h-8.17v5.16c.01.7.58,1.26,1.28,1.26h.25v.2s-4.37,0-4.37,0v-.2h.26c.7,0,1.27-.56,1.28-1.26v-11.08c-.02-.69-.58-1.25-1.28-1.25h-.25v-.2s4.37,0,4.37,0v.2h-.26c-.69,0-1.26.55-1.28,1.24v5.33h8.17v-5.34c-.03-.68-.59-1.23-1.28-1.23h-.25v-.2s4.37,0,4.37,0v.2h-.26c-.7,0-1.27.56-1.28,1.26v11.07c.01.7.58,1.26,1.28,1.26h.25v.2s-4.37,0-4.37,0Z"/>
        <path class="cls-1" d="M258.35,217.46v.2h-.3c-.52,0-.94.36-.96.84v6.72c0,2.79-1.9,4.5-4.98,4.5s-5-1.7-5-4.47v-6.73c0-.5-.44-.87-.96-.87h-.3v-.2h3.79v.2h-.3c-.53,0-.95.37-.96.87v6.48c0,2.59,1.41,4.18,3.7,4.18,2.52,0,4.07-1.5,4.07-3.96v-6.71c-.02-.49-.44-.85-.96-.85h-.3v-.2h3.44Z"/>
        <path class="cls-1" d="M270,228.08c.41.82,1.01,1.16,1.54,1.16h.15v.2h-4.1v-.2h.16c.46,0,.97-.43.71-1.2l-1.09-2.66h-5.05l-1.1,2.6c-.31.8.22,1.25.69,1.25h.16v.2h-3.81v-.2h.16c.53,0,1.16-.34,1.57-1.15l4.14-8.85s.73-1.53.77-2.06h.19l4.93,10.9ZM267.11,224.79l-2.24-5.47-2.31,5.47h4.55Z"/>
        <path class="cls-1" d="M286.45,217.46v.2h-.33c-.59,0-1.08.44-1.11,1v8.52c0,1.29.19,2.55.19,2.55h-.19l-10.39-9.86v8.33c.01.58.5,1.04,1.11,1.04h.33v.2s-3.77,0-3.77,0v-.2h.34c.61,0,1.1-.46,1.11-1.04v-8.55c0-1.36-.19-2.5-.19-2.5h.21s10.37,9.78,10.37,9.78v-8.28c-.04-.56-.52-1-1.11-1h-.33v-.2s3.77,0,3.77,0Z"/>
        <path class="cls-1" d="M300.44,217.46v.2h-.3c-.52,0-.94.36-.96.84v6.72c0,2.79-1.9,4.5-4.98,4.5s-5-1.7-5-4.47v-6.73c-.01-.5-.44-.87-.96-.87h-.3v-.2h3.79v.2h-.3c-.52,0-.95.37-.96.87v6.48c0,2.59,1.41,4.18,3.7,4.18,2.52,0,4.07-1.5,4.07-3.96v-6.71c-.02-.49-.44-.85-.96-.85h-.3v-.2h3.44Z"/>
        <path class="cls-1" d="M314.17,224.42l-.21,2.74c-1.04,1.6-3.14,2.58-5.5,2.58-4.05-.02-6.59-2.4-6.59-6.27s2.55-6.27,6.59-6.27c1.66,0,3.45.46,4.68,1.21l.44,2.82h-.17c-.61-2.45-2.48-3.43-4.95-3.43-3.16,0-5.14,2.16-5.14,5.67s1.98,5.62,5.15,5.65c2.98.03,5.32-1.42,5.53-4.69h.17Z"/>
        <path class="cls-1" d="M329.83,223.46c0,3.71-3.01,6.27-6.74,6.27s-6.74-2.56-6.74-6.27,3.01-6.27,6.74-6.27,6.74,2.56,6.74,6.27ZM328.35,223.46c0-3.38-2.32-5.67-5.26-5.67s-5.26,2.3-5.26,5.67,2.32,5.67,5.26,5.67,5.26-2.3,5.26-5.67Z"/>
        <path class="cls-1" d="M336.71,228.63c0-.5.4-.9.9-.9s.9.4.9.9-.4.9-.9.9-.9-.4-.9-.9Z"/>
        <path class="cls-1" d="M353.93,215.45c.86,0,2.03-.21,2.4-.36v2.51h-.2v-.36c0-.64-.5-1.16-1.14-1.19h-3.79v11.96c.02.69.59,1.24,1.28,1.24h.25v.2s-4.37,0-4.37,0v-.2h.26c.69,0,1.25-.54,1.28-1.22v-11.98h-3.79c-.63.03-1.14.55-1.14,1.19v.36h-.2s0-2.51,0-2.51c.37.16,1.54.36,2.4.36h6.75Z"/>
        <path class="cls-1" d="M357.82,229.45v-.2h.27c.74,0,1.34-.48,1.36-1.08v-9.42c-.02-.6-.62-1.08-1.36-1.08h-.27v-.2s4.52,0,4.52,0v.2h-.27c-.73,0-1.32.46-1.35,1.05v9.47c.02.59.62,1.07,1.36,1.07h.27v.2s-4.52,0-4.52,0Z"/>
        <path class="cls-1" d="M378.29,217.46v.2h-.33c-.59,0-1.08.44-1.11,1v8.52c0,1.29.19,2.55.19,2.55h-.19l-10.39-9.86v8.33c.01.58.5,1.04,1.11,1.04h.33v.2s-3.77,0-3.77,0v-.2h.33c.61,0,1.1-.46,1.11-1.04v-8.55c0-1.36-.19-2.5-.19-2.5h.21s10.37,9.78,10.37,9.78v-8.28c-.04-.56-.52-1-1.11-1h-.33v-.2s3.77,0,3.77,0Z"/>
        <path class="cls-1" d="M392.13,227.15c-.93,1.18-2.88,2.57-5.69,2.57-3.95-.02-6.55-2.4-6.55-6.27s2.61-6.27,6.55-6.27c1.84,0,3.31.39,4.66,1.21l.44,2.82h-.18c-.58-2.33-2.15-3.43-4.95-3.43-3.05,0-5.08,2.16-5.08,5.67s2.04,5.67,5.11,5.67c1.66,0,3.14-.51,4.39-1.73l.03-2.65c0-.5-.35-.79-.93-.78h-.29v-.2h3.66v.2h-.27c-.58,0-.91.28-.91.79v2.4Z"/>
        <path class="cls-1" d="M408.19,223.46c0,3.71-3.01,6.27-6.74,6.27s-6.74-2.56-6.74-6.27,3.01-6.27,6.74-6.27,6.74,2.56,6.74,6.27ZM406.71,223.46c0-3.38-2.32-5.67-5.26-5.67s-5.26,2.3-5.26,5.67,2.32,5.67,5.26,5.67,5.26-2.3,5.26-5.67Z"/>
        <path class="cls-1" d="M429.9,228.15c.11.69.7,1.09,1.36,1.09h.3v.2h-4.15v-.19h.29c.4,0,.79-.34.73-.77l-1.05-8.22-3.76,7.42s-.57,1.21-.71,2.04h-.2l-4.81-9.28-.9,8.04c-.04.41.33.77.73.77h.29v.19h-3.71v-.2h.3c.67,0,1.27-.42,1.37-1.13l1.55-10.93h.2l5.27,10.14,5.1-10.14h.19l1.6,10.96Z"/>
        <path class="cls-1" d="M443.36,228.08c.41.82,1.01,1.16,1.54,1.16h.15v.2h-4.1v-.2h.16c.46,0,.97-.43.71-1.2l-1.09-2.66h-5.05l-1.1,2.6c-.31.8.22,1.25.69,1.25h.16v.2h-3.8v-.2h.16c.53,0,1.16-.34,1.56-1.15l4.14-8.85s.73-1.53.77-2.06h.19l4.93,10.9ZM440.47,224.79l-2.24-5.47-2.31,5.47h4.55Z"/>
        <path class="cls-1" d="M451.05,217.46c2.52,0,4.06,1.22,4.06,3.23,0,1.69-1.31,3.11-3.11,3.29.44.2,1.11.96,1.54,1.57,0,0,.92,1.25,1.75,2.18.81.91,1.37,1.51,2.48,1.52v.2h-.63c-2.21,0-3.08-1-3.71-1.76-.22-.27-1.8-2.54-1.96-2.74-.54-.68-1.23-1.35-2.02-1.35v-.18s.49,0,1.14,0c1.11-.03,2.36-.04,2.94-1.72.1-.28.15-.7.14-1.14-.04-1.5-1.05-2.38-2.66-2.46-1.12-.06-2.11,0-2.3-.02v10.08c.01.6.49,1.08,1.13,1.08h.27v.2s-4.08,0-4.08,0v-.2h.27c.63,0,1.11-.47,1.13-1.06v-9.49c-.02-.59-.5-1.04-1.13-1.04h-.27v-.2s5,0,5,0Z"/>
        <path class="cls-1" d="M462.5,229.45h-3.93v-.2h.22c.6,0,1.09-.48,1.1-1.08v-9.42c-.01-.6-.5-1.08-1.1-1.08h-.22v-.2s3.92,0,3.92,0v.2h-.22c-.59,0-1.07.47-1.1,1.05v9.47c.02.59.5,1.07,1.1,1.07h.22v.2ZM460.4,216.04c.84-.91,1.69-1.8,2.54-2.61.31.31.6.66.82,1.05-1.07.63-2.14,1.18-3.21,1.7l-.14-.14Z"/>
        <path class="cls-1" d="M475.24,228.08c.41.82,1.01,1.16,1.54,1.16h.15v.2h-4.1v-.2h.16c.46,0,.97-.43.71-1.2l-1.09-2.66h-5.05l-1.1,2.6c-.31.8.22,1.25.69,1.25h.16v.2h-3.8v-.2h.16c.53,0,1.16-.34,1.56-1.15l4.14-8.85s.73-1.53.77-2.06h.19l4.93,10.9ZM472.35,224.79l-2.24-5.47-2.31,5.47h4.55Z"/>
        <path class="cls-1" d="M482.72,228.63c0-.5.4-.9.9-.9s.9.4.9.9-.4.9-.9.9-.9-.4-.9-.9Z"/>
        <path class="cls-1" d="M496.15,217.46c2.79,0,4.57,1.3,4.56,3.42,0,3.04-3.04,4.41-5.75,3.09v-.19s3.18.84,4.17-2.02c.1-.28.14-.74.14-1.08,0-1.62-1.19-2.62-3.15-2.62h-1.93v10.11c.02.59.51,1.07,1.16,1.07h.28v.2s-4.15,0-4.15,0v-.2h.28c.65,0,1.14-.47,1.16-1.06v-9.47c-.01-.6-.5-1.05-1.16-1.05h-.28v-.2s4.67,0,4.67,0Z"/>
        <path class="cls-1" d="M510.65,229.45h-8.11v-.2h.28c.64,0,1.13-.47,1.15-1.06v-9.48c0-.6-.5-1.05-1.15-1.05h-.28v-.2s5.83,0,5.83,0c.8,0,1.88-.18,2.23-.31v2.26h-.22v-.31c0-.56-.39-1.01-1-1.03h-4.14v5.08h3.41c.55-.01.81-.39.81-.85v-.25h.22s0,2.8,0,2.8h-.22v-.26c0-.45-.24-.82-.76-.85h-3.46v5.08h3.12c1.92-.03,2.6-.96,3.17-2.25h.22l-1.1,2.87Z"/>
        <path class="cls-1" d="M518.25,217.46c2.52,0,4.06,1.22,4.06,3.23,0,1.69-1.31,3.11-3.11,3.29.44.2,1.11.96,1.54,1.57,0,0,.92,1.25,1.75,2.18.81.91,1.37,1.51,2.48,1.52v.2h-.63c-2.21,0-3.08-1-3.71-1.76-.23-.27-1.8-2.54-1.96-2.74-.54-.68-1.23-1.35-2.03-1.35v-.18s.49,0,1.15,0c1.1-.03,2.36-.04,2.94-1.72.1-.28.15-.7.14-1.14-.04-1.5-1.05-2.38-2.66-2.46-1.12-.06-2.11,0-2.3-.02v10.08c.01.6.49,1.08,1.13,1.08h.27v.2s-4.08,0-4.08,0v-.2h.27c.63,0,1.11-.47,1.13-1.06v-9.49c-.02-.59-.5-1.04-1.13-1.04h-.27v-.2s5,0,5,0Z"/>
        <path class="cls-1" d="M537.56,217.46v.2h-.3c-.52,0-.94.36-.96.84v6.72c0,2.79-1.9,4.5-4.98,4.5s-5-1.7-5-4.47v-6.73c0-.5-.44-.87-.96-.87h-.3v-.2h3.79v.2h-.3c-.52,0-.95.37-.96.87v6.48c0,2.59,1.41,4.18,3.7,4.18,2.52,0,4.07-1.5,4.07-3.96v-6.71c-.02-.49-.44-.85-.96-.85h-.3v-.2h3.44ZM531.13,216.04c.84-.91,1.69-1.8,2.54-2.61.31.31.6.66.82,1.05-1.07.63-2.14,1.18-3.21,1.7l-.14-.14Z"/>
      </g>
    </g>
  </g>
</svg>